<svg width="420" height="261" viewBox="0 0 420 261" fill="none" xmlns="http://www.w3.org/2000/svg">
<path d="M78.8376 167.173C51.3115 161.056 9 154.023 9 154.023C9 154.023 29.6441 141.775 41.4567 132.036C53.503 122.104 60.1238 116.078 69.7255 103.767C80.2058 90.33 82.4168 80.3576 91.7124 66.0753C100.502 52.5707 104.411 43.9769 115.793 32.5716C128.452 19.8867 136.114 10.8018 153.485 6.39677C163.797 3.78173 170.317 3.06158 180.707 5.34977C189.994 7.39527 195.475 9.62808 202.694 15.8197C209.838 21.948 216.304 35.7125 216.304 35.7125C216.304 35.7125 234.792 17.0666 249.808 10.5847C262.472 5.11821 270.617 2.0653 284.359 3.25579C294.152 4.10422 299.865 5.77862 308.44 10.5847C317.03 15.3992 321.131 19.6503 327.286 27.3366C333.55 35.1597 335.828 40.6594 339.594 49.7547L339.849 50.3704C344.708 62.0986 342.656 70.372 348.225 81.7802C353.858 93.3179 359.128 98.7894 368.118 107.955C383.206 123.337 414.186 138.318 414.186 138.318C414.186 138.318 391.891 160.093 378.588 174.962C363.473 191.858 361.063 200.388 348.225 213.976L347.348 214.905C332.42 230.709 325.573 237.958 302.976 249.077C281.619 259.586 263.788 259.418 240.086 255.659C216.384 251.899 200.865 241.933 183.046 226.407C168.476 213.714 156.044 203.006 134.781 190.574C113.286 178.008 102.239 172.374 78.8376 167.173Z" fill="#BE0707" stroke="#620000" stroke-width="6"/>
<path d="M134.643 40.8848C134.784 45.8232 135.387 49.287 139.874 51.3547C144.571 53.5192 147.507 50.1268 152.442 48.2137C155.972 46.8449 158.101 45.5069 161.865 45.9272C164.458 46.2168 166.076 46.6214 168.143 48.2137C170.703 50.1857 169.878 52.0791 172.331 55.3502C174.784 58.6212 179.076 61.1206 183.852 59.7306C188.579 58.3549 190.697 55.5493 193.275 51.3547C197.562 44.3791 197.635 37.9021 194.322 30.4149C191.394 23.8 187.588 20.0948 180.711 17.851C173.995 15.6598 169.123 15.2555 161.865 15.757C154.377 16.2743 145.113 23.1581 144.066 24.1331C143.019 25.108 134.432 33.5167 134.643 40.8848Z" fill="white" stroke="black" stroke-width="2"/>
<path d="M251.902 27.0808C247.707 31.6841 245.276 34.5634 245.659 40.7794C245.843 43.7504 245.825 45.8411 247.753 48.1083C250.017 50.7691 252.638 51.1314 256.129 51.2493C260.531 51.3979 262.684 49.0771 266.599 47.0613C270.029 45.2956 273.889 44.5164 274.936 44.9673C276.529 45.6535 277.897 45.8347 279.124 47.0613C281.577 49.5146 281.549 49.2694 284.398 51.2493C288.014 53.7623 290.464 55.4372 294.868 55.4372C299.272 55.4372 302.224 54.3632 305.338 51.2493C308.452 48.1354 309.178 45.1693 309.526 40.7794C310.006 34.72 307.924 30.9945 304.291 26.1215C301.161 21.9236 298.559 20.8488 293.782 18.7049C288.506 16.3373 284.903 16.4173 279.124 16.611C273.273 16.8071 269.92 17.6241 264.466 19.752C259.174 21.8166 255.728 22.8822 251.902 27.0808Z" fill="white" stroke="black" stroke-width="2"/>
<path d="M155.579 146.439C144.625 142.869 131.49 129.513 131.49 129.513L144.062 130.734C144.062 130.734 151.901 129.154 165.002 133.875C176.097 137.872 188.165 145.235 188.165 145.235C188.165 145.235 168.502 150.65 155.579 146.439Z" fill="black" stroke="black"/>
<path d="M85.7847 111.23L55.802 139.75L86.5159 135.363L94.7151 134.095L108.721 132.414C108.721 132.414 117.787 131.781 124.169 131.781H135.686C141.968 131.781 152.382 135.822 157.673 137.271C162.814 138.68 172.631 141.184 177.63 143.058C181.987 144.693 185.71 146.927 189.78 149.37L190.129 149.579C195.364 152.72 202.059 156.936 202.059 156.936C202.059 156.936 207.663 160.516 215.953 166.077C222.829 170.688 227.813 172.329 235.698 174.852C244.839 177.777 248.88 178.594 258.368 180.702C268.354 182.921 272.32 183.172 282.5 182.165C291.641 181.261 296.395 180.702 305.536 178.508C316.395 175.902 322.181 173.838 331.862 168.27C341.504 162.726 345.648 160.065 354.166 152.913C360.591 147.519 370.212 144.6 370.212 144.6C370.212 144.6 343.392 146.065 328.332 139.365C309.047 130.785 306.483 116.728 291.357 100.481C285.003 93.6568 280.503 89.2999 271.795 85.9684C262.24 82.3131 255.598 82.6635 245.62 84.9214C237.236 86.8187 233.594 90.8804 225.727 94.3443C218.847 97.3735 215.116 99.4722 207.928 101.673C198.505 104.559 193.27 103.512 183.847 100.626C174.754 97.8417 170.347 93.758 161.86 90.1564C152.184 86.0494 146.188 83.4251 135.686 83.8744C126.764 84.2561 121.798 86.394 113.699 90.1564C104.129 94.6021 91.712 105.861 91.712 105.861L85.7847 111.23Z" fill="black" stroke="black" stroke-width="3"/>
<path d="M106.371 96.1823C101.72 100.673 99.2927 103.589 99.0418 110.049C98.911 113.418 99.1229 115.72 101.136 118.425C102.896 120.79 104.661 121.567 107.418 122.613C110.121 123.639 111.866 123.903 114.747 123.66C118.228 123.366 120.029 122.142 123.123 120.519C125.734 119.149 129.405 116.331 129.405 116.331C129.405 116.331 131.711 120.953 133.593 123.66C135.744 126.755 136.252 127.98 138.827 130.733C141.403 133.486 145.109 137.015 145.109 137.015C145.109 137.015 148.251 139.621 152.438 142.506C156.626 145.391 158.451 145.299 161.944 145.299C166.132 145.299 167.547 144.739 171.284 143.553C175.022 142.367 178.191 140.817 181.754 139.109C187.513 136.348 199.553 128.895 199.553 128.895C199.553 128.895 203.674 131.953 205.835 133.874C209.368 137.015 211.82 138.867 215.258 140.412C218.696 141.957 220.959 142.951 224.681 143.553C229.278 144.295 231.911 143.84 236.559 143.553C241.867 143.225 244.743 142.028 249.809 140.412C253.137 139.35 255.102 138.914 258.185 137.271C261.792 135.347 263.589 133.798 266.561 130.989C269.3 128.399 272.843 123.66 272.843 123.66C272.843 123.66 274.469 128.268 275.983 130.989C277.972 134.561 279.039 136.853 282.265 139.365C286.042 142.304 289.006 143.852 293.782 143.553C297.269 143.334 299.417 142.578 302.158 140.412C305.185 138.02 306.642 135.819 307.393 132.036C308.206 127.946 306.686 125.498 305.299 121.566C303.224 115.68 300.814 112.835 296.923 107.955C293.319 103.433 290.775 100.024 286.453 96.1823C280.341 90.7494 277.446 87.5477 269.702 84.9212C263.108 82.6847 258.813 83.0194 251.903 83.8742C245.994 84.605 242.734 85.7586 237.245 88.0621C230.649 90.8296 227.026 94.3186 220.493 97.2292C214.232 100.018 211.562 101.679 204.788 102.72L204.438 102.774C197.829 103.791 195.239 104.189 188.036 102.464C182.343 101.101 178.703 98.8712 173.378 96.4381C165.222 92.711 161.04 89.5489 152.438 87.0151C146.054 85.1345 142.331 83.4775 135.687 83.8742C129.744 84.2289 125.383 85.3035 119.982 87.8063C114.631 90.2854 110.613 92.0863 106.371 96.1823Z" fill="white" stroke="black"/>
<path d="M311.222 162.597C312.758 166.473 314.311 176.314 314.311 176.314C314.311 176.314 310.655 177.411 307.034 178.142C303.232 178.91 302.611 179.239 298.589 179.971C294.091 180.788 292.007 181.058 287.619 181.799C282.317 182.695 278.737 182.896 273.359 182.896C266.535 182.896 264.438 182.352 257.637 180.702C251.73 179.269 248.496 178.478 242.645 177.045C237.317 175.741 228.751 173.023 223.632 170.464C218.358 167.827 215.588 165.711 210.711 162.597C207.534 160.568 203.156 157.666 203.156 157.666L199.134 154.741C199.134 154.741 201.34 153.846 204.984 152.913C208.199 152.09 212.777 151.224 214.491 151.085C218.147 150.787 225.209 150.656 228.886 150.787C233.807 150.962 235.091 151.224 240.026 151.871C244.573 152.468 248.587 153.061 252.59 155.268C257.825 158.153 265.154 166.529 265.154 166.529C265.154 166.529 265.862 160.311 271.436 155.268C274.148 152.814 276.391 152.373 279.812 151.08L279.865 151.06C282.617 150.02 284.215 149.415 287.141 148.986C290.377 148.511 292.331 148.247 295.517 148.986C297.662 149.483 298.788 150.084 300.752 151.08C303.382 152.413 304.994 153.139 307.034 155.268C309.315 157.648 310.008 159.532 311.222 162.597Z" fill="white"/>
<path d="M199.134 154.741L203.156 157.666C203.156 157.666 207.534 160.568 210.711 162.597C215.588 165.711 218.358 167.827 223.632 170.464C228.751 173.023 237.317 175.741 242.645 177.045C248.496 178.478 251.73 179.269 257.637 180.702C264.438 182.352 266.535 182.896 273.359 182.896C278.737 182.896 282.317 182.695 287.619 181.799C292.007 181.058 294.091 180.788 298.589 179.971C302.611 179.239 303.232 178.91 307.034 178.142C310.655 177.411 314.311 176.314 314.311 176.314C314.311 176.314 312.758 166.473 311.222 162.597C310.008 159.532 309.315 157.648 307.034 155.268C304.994 153.139 303.382 152.413 300.752 151.08C298.788 150.084 297.662 149.483 295.517 148.986C292.331 148.247 290.377 148.511 287.141 148.986C284.196 149.418 282.596 150.027 279.812 151.08C276.391 152.373 274.148 152.814 271.436 155.268C265.862 160.311 265.154 166.529 265.154 166.529C265.154 166.529 257.825 158.153 252.59 155.268C248.587 153.061 244.573 152.468 240.026 151.871C235.091 151.224 233.807 150.962 228.886 150.787C225.209 150.656 218.147 150.787 214.491 151.085C212.777 151.224 208.199 152.09 204.984 152.913M199.134 154.741C199.134 154.741 201.34 153.846 204.984 152.913M199.134 154.741L204.984 152.913" stroke="black"/>
<path d="M118.327 151.451C109.43 149.893 83.6224 149.257 83.6222 146.997C83.6219 143.407 101.324 143.772 110.648 143.772C117.653 143.772 129.878 145.199 137.062 146.997C144.885 148.954 150.038 150.839 157.467 153.977C162.018 155.899 164.865 157.026 169.448 158.872C176.743 161.811 180.871 163.959 187.769 167.736C199.675 174.254 205.102 179.922 217.304 185.695C225.074 189.371 229.508 191.438 237.782 193.768C252.146 197.811 263.008 201.622 277.866 200.237C283.758 199.688 293.104 198.759 303.707 195.468C314.962 191.975 327.84 183.993 330.431 185.695C334.282 188.225 327.84 192.908 325.28 195.468C322.721 198.027 314.645 203.629 309.558 206.297C304.836 208.773 295.572 212.691 290.136 214.01C282.587 215.842 273.039 216.535 266.098 216.817C257.519 217.166 250.085 215.274 241.792 213.049C230.27 209.958 226.351 207.454 217.995 202.673C211.01 198.676 203.333 193.686 196.898 189.503L196.546 189.273C188.934 184.325 186.731 182.656 179.235 177.535C173.961 173.933 169.362 170.375 163.115 167.261C154.44 162.937 150.779 161.258 141.688 157.897C134.281 155.159 126.105 152.813 118.327 151.451Z" fill="white" stroke="black" stroke-width="2"/>
</svg>
