<svg width="376" height="239" viewBox="0 0 376 239" fill="none" xmlns="http://www.w3.org/2000/svg">
<path d="M70.6721 156.474C47.6948 146.209 9 137.786 9 137.786C9 137.786 27.4246 126.855 37.9672 118.163C48.7183 109.299 54.6273 103.92 63.1967 92.9332C72.5502 80.9408 74.5235 72.0406 82.8196 59.2938C90.6641 47.2411 94.1532 39.5713 104.311 29.3922C115.609 18.0711 122.448 9.96298 137.951 6.03157C147.154 3.69768 152.973 3.05496 162.246 5.09714C170.535 6.92271 175.426 8.91547 181.869 14.4414C188.245 19.9109 194.016 32.1955 194.016 32.1955C194.016 32.1955 210.517 15.5542 223.918 9.76927C235.22 4.89047 242.49 2.16579 254.754 3.22829C263.494 3.9855 268.593 5.47988 276.246 9.76927C283.912 14.0661 287.572 17.8601 293.065 24.7201C298.657 31.7021 300.689 36.6106 304.051 44.7281L304.279 45.2775C308.615 55.7447 306.784 63.1285 311.754 73.3102C316.781 83.6074 321.484 88.4907 329.508 96.6709C342.974 110.399 370.623 123.769 370.623 123.769C370.623 123.769 350.725 143.204 338.852 156.474C325.362 171.553 320.711 182.609 306.147 196.654C290.755 211.499 282.227 221.784 262.229 229.359C242.363 236.885 229.014 237.36 208.033 234.031C186.879 230.676 176.168 223.169 157.574 212.54C140.78 202.94 133.603 194.129 117.393 183.572C99.7185 172.062 89.9304 165.078 70.6721 156.474Z" fill="#BE0707" stroke="#620000" stroke-width="6"/>
<path d="M121.134 36.8109C121.26 41.2184 121.798 44.3098 125.803 46.1552C129.995 48.087 132.616 45.0593 137.02 43.3519C140.171 42.1303 142.071 40.9361 145.429 41.3112C147.744 41.5697 149.188 41.9308 151.032 43.3519C153.317 45.1119 152.581 46.8017 154.77 49.7211C156.96 52.6404 160.79 54.8711 165.052 53.6306C169.271 52.4028 171.161 49.8988 173.462 46.1552C177.288 39.9296 177.354 34.149 174.397 27.4667C171.784 21.563 168.387 18.2561 162.249 16.2536C156.256 14.298 151.908 13.9372 145.429 14.3847C138.746 14.8464 130.479 20.9902 129.544 21.8603C128.61 22.7304 120.946 30.235 121.134 36.8109Z" fill="white" stroke="black" stroke-width="2"/>
<path d="M225.787 24.4911C222.043 28.5995 219.873 31.1692 220.215 36.7169C220.379 39.3685 220.363 41.2345 222.084 43.2579C224.105 45.6326 226.444 45.9559 229.56 46.0612C233.488 46.1939 235.41 44.1225 238.904 42.3235C241.965 40.7476 245.41 40.0522 246.345 40.4546C247.767 41.067 248.987 41.2287 250.082 42.3235C252.272 44.513 252.246 44.2942 254.789 46.0612C258.017 48.304 260.203 49.7989 264.133 49.7989C268.064 49.7989 270.699 48.8403 273.478 46.0612C276.257 43.2821 276.905 40.6349 277.215 36.7169C277.644 31.309 275.786 27.9841 272.543 23.635C269.75 19.8884 267.428 18.9292 263.164 17.0157C258.456 14.9027 255.24 14.9742 250.082 15.147C244.86 15.322 241.868 16.0512 237 17.9503C232.277 19.7929 229.201 20.7439 225.787 24.4911Z" fill="white" stroke="black" stroke-width="2"/>
<path d="M139.82 131.017C130.043 127.831 116.459 118.869 116.459 118.869L129.541 117C129.541 117 136.537 115.59 148.229 119.803C158.132 123.372 170.656 134.754 170.656 134.754C170.656 134.754 151.353 134.775 139.82 131.017Z" fill="#560000" stroke="#560000"/>
<path d="M61.328 112.556C53.5147 119.32 41.7051 130.31 41.7051 130.31C41.7051 130.31 54.8335 127.966 63.1969 126.344C70.1528 124.996 75.822 122.783 82.8198 121.672C89.347 120.636 91.2402 120.112 97.7706 119.097C105.246 117.935 106.092 117.935 111.787 117.935H122.066C127.672 117.935 136.967 121.541 141.689 122.835C146.277 124.092 154.678 128.213 159.443 128.213C163.18 128.213 166.901 131.567 170.656 133.82C175.328 136.623 180 141.295 180 141.295C180 141.295 185.684 147.774 193.082 152.736C199.219 156.852 202.443 159.546 208.967 163.015C216.626 167.088 221.057 169.543 229.525 171.425C238.437 173.405 243.799 173.258 252.885 172.359C261.078 171.549 265.602 170.198 273.443 167.687C282.935 164.648 288.163 162.377 296.803 157.409C305.409 152.46 309.758 148.841 317.361 142.458C323.095 137.643 331.377 129.376 331.377 129.376C331.377 129.376 307.44 130.683 294 124.704C276.788 117.046 274.729 102.313 260.361 90.1298C254.014 84.7481 251.313 80.0212 243.541 77.0479C235.014 73.7856 229.085 74.0983 220.18 76.1135C212.698 77.8067 209.448 81.4318 202.426 84.5233C196.286 87.2268 192.956 89.0999 186.541 91.0643C178.131 93.6396 173.459 92.7052 165.049 90.1298C156.934 87.6446 153.413 83.6579 145.426 80.7856C136.598 77.6106 131.439 74.778 122.066 75.179C114.103 75.5197 109.671 77.4277 102.443 80.7856C93.902 84.7533 90.3008 89.0817 82.8198 94.802C74.1718 101.415 69.5588 105.431 61.328 112.556Z" fill="black" stroke="black" stroke-width="3"/>
<path d="M95.9014 86.1639C91.7505 90.1716 89.5844 92.7743 89.3605 98.5398C89.2438 101.547 89.4329 103.601 91.2294 106.015C92.8004 108.126 94.3757 108.819 96.8359 109.753C99.2484 110.668 100.806 110.905 103.377 110.687C106.484 110.425 108.091 109.332 110.852 107.884C113.183 106.662 116.459 104.146 116.459 104.146C116.459 104.146 118.517 108.272 120.197 110.687C122.117 113.45 122.57 114.543 124.869 117C127.167 119.457 130.475 122.607 130.475 122.607C130.475 122.607 133.279 124.932 137.016 127.507C140.754 130.082 142.308 130.082 145.426 130.082C149.164 130.082 150.363 129.367 153.836 128.441C157.308 127.515 160.07 126.277 163.18 124.475C168.113 121.619 179.065 115.359 179.065 115.359C179.065 115.359 182.743 118.089 184.672 119.803C187.826 122.607 190.013 124.259 193.082 125.638C196.151 127.017 198.17 127.905 201.491 128.441C205.594 129.104 207.945 128.698 212.093 128.441C216.83 128.149 219.396 127.081 223.918 125.638C226.888 124.69 228.642 124.302 231.393 122.835C234.613 121.118 236.217 119.735 238.869 117.228C241.314 114.917 244.475 110.687 244.475 110.687C244.475 110.687 245.927 114.8 247.279 117.228C249.053 120.417 250.005 122.462 252.885 124.704C256.256 127.327 258.901 128.709 263.164 128.441C266.275 128.246 268.193 127.571 270.639 125.638C273.34 123.504 274.641 121.539 275.311 118.163C276.036 114.513 274.68 112.328 273.442 108.818C271.59 103.565 269.439 101.027 265.967 96.6709C262.75 92.6355 260.48 89.5925 256.623 86.1639C251.168 81.3152 248.584 78.4577 241.672 76.1135C235.787 74.1176 231.954 74.4162 225.787 75.1791C220.514 75.8314 217.604 76.861 212.705 78.9168C206.819 81.3868 203.585 84.5006 197.754 87.0983C192.166 89.5877 189.784 91.0695 183.738 91.9988L183.426 92.0468C177.527 92.9542 175.215 93.3098 168.787 91.7705C163.705 90.5538 160.457 88.5638 155.705 86.3922C148.426 83.0658 144.693 80.2437 137.016 77.9824C131.318 76.3039 127.995 74.8251 122.065 75.1791C116.762 75.4958 112.87 76.4548 108.049 78.6885C103.274 80.9011 99.6875 82.5083 95.9014 86.1639Z" fill="white" stroke="black"/>
<path d="M279.984 155.54C281.354 159 281.852 164.884 281.852 164.884L276.246 166.753C272.962 167.848 271.184 168.678 267.836 169.556C263.89 170.592 261.58 170.746 257.557 171.425C252.825 172.225 250.206 173.123 245.41 173.294C239.167 173.516 235.595 172.898 229.525 171.425C224.253 170.146 221.425 168.898 216.443 166.753C211.946 164.818 209.469 163.594 205.229 161.147C200.672 158.515 198.169 156.905 194.016 153.671C191.362 151.604 187.475 148.065 187.475 148.065C187.475 148.065 184.574 145.968 185.607 145.968C187.475 145.968 194.47 145.968 197.754 145.968C201.038 145.968 202.882 145.851 206.164 145.968C210.555 146.124 212.087 145.384 216.443 145.968C220.486 146.51 224.083 147.03 227.656 148.999C232.328 151.574 238.869 159.05 238.869 159.05C238.869 159.05 242.286 150.094 244.475 148.999C247.395 147.539 248.898 146.415 251.951 145.261L251.998 145.243C254.454 144.315 255.88 143.776 258.492 143.392C261.38 142.968 263.123 142.733 265.967 143.392C267.881 143.836 268.886 144.373 270.639 145.261C272.986 146.451 274.425 147.099 276.246 148.999C278.281 151.123 278.9 152.805 279.984 155.54Z" fill="white" stroke="black"/>
<path d="M98.7047 136.666C90.8749 134.748 79.5 133 79.5 133C79.5 133 90.3963 128.721 98.7047 128.256C105.303 127.886 118.579 129.964 124.869 131.993C131.718 134.203 136.195 136.189 142.623 139.426C146.561 141.409 148.931 143.158 152.901 145.076C159.222 148.128 162.742 149.916 168.787 153.485C179.161 159.611 183.494 165.371 194.016 171.239C200.716 174.977 204.541 177.082 211.77 179.649C224.32 184.107 232.096 185.603 245.41 185.256C256.928 184.956 280 178 280 178C280 178 274.603 184.499 269.705 187.125C265.511 189.373 260.178 192.09 255.688 193.666C249.146 195.962 240.195 196.469 233.262 196.469C225.599 196.469 219.315 195.008 211.77 193.666C202.54 192.023 199.982 190.917 191.52 187.258L191.213 187.125C184.615 184.272 179.712 180.39 173.459 176.846C166.41 172.851 162.075 168.771 155.705 163.764C151.223 160.242 147.293 158.622 142.623 155.354C135.535 150.395 130.895 148.611 123 145.076C116.567 142.195 105.55 138.342 98.7047 136.666Z" fill="white" stroke="black" stroke-width="2"/>
</svg>
